<svg width="41" height="41" viewBox="0 0 41 41" fill="none" xmlns="http://www.w3.org/2000/svg">
<path d="M34.8178 6.89087H6.66553V34.5796H34.8178V6.89087Z" fill="#8E734A" stroke="#2B2A29" stroke-width="0.2" stroke-miterlimit="22.9256"/>
<path d="M40.4845 20.899L20.5779 0.992401L0.998955 20.5713L20.9056 40.478L40.4845 20.899Z" fill="#FEFEFE" stroke="#2B2A29" stroke-width="0.124724" stroke-miterlimit="22.9256"/>
<path d="M27.4396 23.5914L27.7629 24.335C27.6875 24.3943 27.5204 24.4454 27.2618 24.4886C27.0085 24.5317 26.6771 24.5694 26.2676 24.6017C25.7934 25.0651 25.3193 25.4504 24.8451 25.7575C24.3763 26.0647 23.9102 26.291 23.4468 26.4365C23.339 26.4688 23.2151 26.5038 23.075 26.5415C22.9888 26.5415 22.8945 26.5227 22.7921 26.485C22.6897 26.4526 22.5766 26.4041 22.4526 26.3395C22.3233 26.2586 22.2236 26.1805 22.1536 26.1051C22.0835 26.0296 22.0485 25.9515 22.0485 25.8707C22.0485 25.709 22.1266 25.5528 22.2829 25.4019C22.4392 25.251 22.6682 25.1082 22.9699 24.9735C23.5734 24.6933 24.1688 24.4104 24.7562 24.1248C24.8424 24.1248 24.9044 24.1437 24.9421 24.1814C24.9798 24.2137 24.9987 24.2568 24.9987 24.3107C24.9987 24.4562 24.8936 24.5802 24.6834 24.6825C24.4787 24.7795 24.3763 24.8496 24.3763 24.8927C24.414 24.9466 24.4463 24.9735 24.4733 24.9735C24.5433 24.9735 24.6969 24.8684 24.934 24.6583C25.1765 24.4481 25.295 24.3161 25.2896 24.2622L25.2492 24.0763L25.2654 24.044C25.4055 23.9201 25.5079 23.8096 25.5725 23.7126C25.6426 23.6156 25.6776 23.5375 25.6776 23.4782C25.6776 23.3435 25.6102 23.163 25.4755 22.9367C25.3408 22.7104 25.1387 22.4383 24.8693 22.1203C24.6646 21.8725 24.4598 21.6516 24.2551 21.4576C24.0503 21.2582 23.8536 21.0831 23.665 20.9322C23.5896 20.8675 23.5249 20.8056 23.471 20.7463C23.4172 20.6816 23.374 20.6224 23.3417 20.5685C23.2824 20.4607 23.2339 20.3718 23.1962 20.3018C23.1639 20.2317 23.1343 20.1859 23.1073 20.1644C23.0804 20.132 23.0427 20.0943 22.9942 20.0512C22.9511 20.0027 22.8972 19.9488 22.8325 19.8895C22.7194 19.771 22.6304 19.6066 22.5658 19.3965C22.5065 19.1864 22.4769 18.925 22.4769 18.6125C22.4769 18.4077 22.5038 18.2111 22.5577 18.0225C22.617 17.8285 22.7005 17.656 22.8083 17.5052C22.8244 17.4728 22.8406 17.4351 22.8568 17.392C22.8729 17.3489 22.8918 17.3004 22.9133 17.2465C23.0373 16.9933 23.2474 16.7212 23.5438 16.4302C23.8401 16.1338 24.2281 15.8213 24.7077 15.4926C24.7723 15.4603 24.8505 15.4172 24.9421 15.3633C25.0337 15.3094 25.1361 15.2393 25.2492 15.1531C25.3139 15.0992 25.3839 15.0507 25.4594 15.0076C25.5402 14.9645 25.6345 14.9241 25.7423 14.8864C25.8877 14.8271 26.0521 14.7625 26.2353 14.6924C26.5047 14.5523 26.7283 14.4499 26.9061 14.3853C27.084 14.3206 27.2187 14.2883 27.3103 14.2883C27.4881 14.2883 27.6201 14.3422 27.7063 14.4499C27.7979 14.5577 27.8437 14.714 27.8437 14.9187C27.8437 15.145 27.8249 15.3309 27.7872 15.4764C27.7548 15.6165 27.709 15.7108 27.6497 15.7593C27.0139 16.2658 26.502 16.6484 26.1141 16.9071C25.7261 17.1603 25.454 17.2869 25.2977 17.2869C25.2223 17.2869 25.163 17.2654 25.1199 17.2223C25.0768 17.1792 25.0552 17.1145 25.0552 17.0283C25.0552 16.8828 25.1765 16.7238 25.4189 16.5514C25.6614 16.3736 25.78 16.2389 25.7746 16.1473L25.7018 16.0988C25.6749 16.0988 25.6426 16.1069 25.6048 16.123C25.5725 16.1392 25.5375 16.1608 25.4998 16.1877C25.0256 16.5703 24.6673 16.9151 24.4248 17.2223C24.1877 17.524 24.0691 17.7881 24.0691 18.0144C24.0691 18.1922 24.0988 18.3727 24.1581 18.5559C24.2227 18.7391 24.3143 18.9277 24.4329 19.1217C24.5191 19.2564 24.643 19.4288 24.8047 19.639C24.9717 19.8437 25.1819 20.0916 25.4351 20.3826C25.7854 20.7867 26.0548 21.0992 26.2434 21.3202C26.432 21.5411 26.537 21.6569 26.5586 21.6677C26.6664 21.8078 26.758 21.9479 26.8334 22.088C26.9088 22.2281 26.96 22.3628 26.987 22.4921C27.0139 22.5945 27.0328 22.7212 27.0436 22.872C27.0543 23.0229 27.0597 23.2061 27.0597 23.4216C27.0597 23.5456 27.0786 23.6183 27.1163 23.6399C27.154 23.656 27.216 23.6641 27.3022 23.6641C27.3345 23.6641 27.3588 23.6587 27.3749 23.648C27.3965 23.6318 27.418 23.6129 27.4396 23.5914Z" fill="#8E734A"/>
<path d="M13.3014 17.7329C13.2847 17.6217 13.2652 17.5049 13.243 17.3826C13.243 17.4326 13.2513 17.3937 13.268 17.2658C13.2847 17.1379 13.3069 16.9182 13.3347 16.6068C13.3792 16.5456 13.4098 16.4927 13.4265 16.4483C13.4488 16.3982 13.4682 16.3537 13.4849 16.3148C13.4348 16.2536 13.3959 16.2035 13.3681 16.1646C13.3459 16.1201 13.3347 16.084 13.3347 16.0562C13.3792 15.7169 13.4209 15.3944 13.4599 15.0885C13.4654 15.0051 13.5127 14.9105 13.6017 14.8049C13.6962 14.6992 13.8241 14.5852 13.9854 14.4628C14.1133 14.3572 14.2385 14.2682 14.3608 14.1959C14.4832 14.1236 14.6 14.0652 14.7112 14.0207C14.8614 13.9706 14.9503 13.9289 14.9781 13.8956C15.006 13.8622 15.0365 13.8455 15.0699 13.8455C15.1589 13.8455 15.2256 13.89 15.2701 13.979C15.3202 14.068 15.3452 14.2014 15.3452 14.3794C15.3452 14.4739 15.3202 14.6046 15.2701 14.7715C15.2256 14.9383 15.2034 15.0607 15.2034 15.1385C15.2034 15.1719 15.2062 15.2998 15.2117 15.5223C15.2228 15.7447 15.2367 16.0645 15.2534 16.4816C15.259 16.7819 15.3007 17.1017 15.3786 17.441C15.462 17.7802 15.5677 18.1334 15.6956 18.5004C15.868 18.9787 16.0543 19.3374 16.2545 19.5766C16.4547 19.8101 16.6744 19.9269 16.9135 19.9269C17.1026 19.9269 17.3529 19.8046 17.6643 19.5599C17.9758 19.3152 18.3428 18.9481 18.7655 18.4587C19.088 18.0805 19.3745 17.7274 19.6247 17.3993C19.8805 17.0711 20.0863 16.7708 20.242 16.4983C20.3866 16.2536 20.5563 16.0339 20.7509 15.8393C20.9456 15.6446 21.168 15.4667 21.4183 15.3054C21.4961 15.2609 21.5601 15.2247 21.6101 15.1969C21.6602 15.1691 21.6991 15.1552 21.7269 15.1552C21.827 15.1552 21.9021 15.2303 21.9522 15.3805C22.0078 15.5306 22.0356 15.7531 22.0356 16.0478C22.0022 16.3203 21.9744 16.5901 21.9522 16.857C21.9021 17.2741 21.827 17.7079 21.7269 18.1584C21.6324 18.6089 21.5073 19.076 21.3515 19.5599C21.2737 19.8046 21.2069 20.0187 21.1513 20.2022C21.0957 20.3857 21.0568 20.5415 21.0345 20.6694C21.0234 20.7417 21.0067 20.8334 20.9845 20.9447C20.9678 21.0503 20.9483 21.1755 20.9261 21.3201C20.8705 21.4591 20.8093 21.5981 20.7426 21.7372C20.6869 21.8484 20.6397 21.9819 20.6007 22.1376C20.5674 22.2933 20.5368 22.4741 20.509 22.6798C20.509 22.7188 20.5062 22.7688 20.5006 22.83C20.4951 22.8912 20.4895 22.9551 20.484 23.0219C20.356 23.5891 20.2253 24.1397 20.0919 24.6736C20.0808 24.7237 20.0557 24.7876 20.0168 24.8655C19.9445 24.8877 19.8611 24.935 19.7665 25.0073C19.6775 25.0796 19.583 25.1797 19.4829 25.3076C19.3828 25.4188 19.2994 25.5023 19.2326 25.5579C19.1659 25.6079 19.1158 25.6329 19.0825 25.6329C19.038 25.6329 19.0018 25.619 18.974 25.5912C18.9462 25.5634 18.9323 25.5162 18.9323 25.4494C18.9379 25.4049 18.9462 25.3688 18.9573 25.341C19.0352 25.1519 19.1019 24.8794 19.1576 24.5234C19.2187 24.1675 19.2743 23.7282 19.3244 23.2054C19.33 23.0942 19.3745 22.7938 19.4579 22.3044C19.5413 21.815 19.6636 21.1365 19.8249 20.269C19.8472 20.1299 19.875 19.9603 19.9083 19.7601C19.9473 19.5543 19.9945 19.3207 20.0502 19.0593C20.0891 18.9259 20.1197 18.8119 20.1419 18.7173C20.1697 18.6172 20.1836 18.5449 20.1836 18.5004C20.1836 18.4448 20.1725 18.4059 20.1503 18.3836C20.1336 18.3558 20.1058 18.3419 20.0668 18.3419C20.0335 18.3419 19.9723 18.3864 19.8833 18.4754C19.7943 18.5588 19.6831 18.6867 19.5496 18.8591C19.4718 18.9537 19.3911 19.0538 19.3077 19.1594C19.2299 19.2651 19.1464 19.368 19.0574 19.4681C18.9073 19.6238 18.7683 19.7712 18.6403 19.9102L18.023 20.5276C17.9674 20.5609 17.8979 20.6026 17.8145 20.6527C17.7366 20.7027 17.6421 20.7611 17.5308 20.8279C17.4252 20.9947 17.2555 21.1393 17.022 21.2617C16.7939 21.3785 16.5826 21.4369 16.388 21.4369C16.1544 21.4369 15.9291 21.3646 15.7123 21.22C15.5009 21.0698 15.2951 20.8418 15.0949 20.5359C15.006 20.3857 14.917 20.2356 14.828 20.0854C14.7446 19.9353 14.6528 19.7851 14.5527 19.6349L14.511 19.6433C14.4832 19.6767 14.4303 19.9019 14.3525 20.319C14.2802 20.7361 14.1856 21.3479 14.0689 22.1543C13.9409 22.9829 13.8436 23.6336 13.7769 24.1063C13.7101 24.5791 13.6768 24.8849 13.6768 25.024C13.6656 25.2131 13.6295 25.3604 13.5683 25.4661C13.5127 25.5662 13.4237 25.6246 13.3014 25.6413C13.2402 25.6468 13.154 25.6635 13.0428 25.6913C12.9315 25.7136 12.7981 25.7442 12.6423 25.7831C12.6145 25.7775 12.5895 25.7692 12.5673 25.7581C12.545 25.7414 12.5339 25.7191 12.5339 25.6913L12.5839 25.3827L12.5005 25.0657C12.5339 24.8933 12.5673 24.7264 12.6006 24.5652C12.6229 24.2315 12.6423 23.9172 12.659 23.6225C12.6646 23.5613 12.6841 23.4584 12.7174 23.3138C12.7564 23.1692 12.7758 23.0608 12.7758 22.9885C12.7758 22.9496 12.7675 22.8939 12.7508 22.8216C12.7341 22.7438 12.7258 22.6854 12.7258 22.6465C12.7258 22.3406 12.773 21.8873 12.8676 21.2867C12.9677 20.6861 13.0177 20.23 13.0177 19.9186C13.0011 19.7907 12.9816 19.6628 12.9593 19.5348C12.9872 19.3346 13.0316 19.0844 13.0928 18.7841C13.154 18.4837 13.2235 18.1334 13.3014 17.7329Z" fill="#2B2A29"/>
</svg>
